<mxfile host="app.diagrams.net" modified="2022-10-03T10:27:02.432Z" agent="5.0 (Macintosh; Intel Mac OS X 10_15_7) AppleWebKit/537.36 (KHTML, like Gecko) Chrome/105.0.0.0 Safari/537.36" etag="UBQy80lEFPhW02sM3nHn" version="20.4.0" type="github">
  <diagram id="2V4RrJXws8VRB1A2GUG9" name="Page-1">
    <mxGraphModel dx="1298" dy="747" grid="1" gridSize="10" guides="1" tooltips="1" connect="1" arrows="1" fold="1" page="1" pageScale="1" pageWidth="850" pageHeight="1100" math="0" shadow="0">
      <root>
        <mxCell id="0" />
        <mxCell id="1" parent="0" />
      </root>
    </mxGraphModel>
  </diagram>
</mxfile>
